<svg xmlns="http://www.w3.org/2000/svg" width="1200" height="630" viewBox="0 0 1200 630" role="img" aria-labelledby="title desc">
  <title id="title">Vetorizador</title>
  <desc id="desc">Prévia social do portfólio Vetorizador com destaque para inteligência geoespacial e documental.</desc>
  <defs>
    <linearGradient id="bg" x1="0" y1="0" x2="1" y2="1">
      <stop offset="0%" stop-color="#111111" />
      <stop offset="65%" stop-color="#1b1712" />
      <stop offset="100%" stop-color="#2b1f10" />
    </linearGradient>
    <linearGradient id="accent" x1="0" y1="0" x2="1" y2="1">
      <stop offset="0%" stop-color="#ff9800" />
      <stop offset="100%" stop-color="#ef6c00" />
    </linearGradient>
  </defs>
  <rect width="1200" height="630" fill="url(#bg)" />
  <circle cx="915" cy="146" r="150" fill="#ff9800" opacity="0.12" />
  <circle cx="1040" cy="470" r="210" fill="#ff9800" opacity="0.08" />
  <g opacity="0.18">
    <path d="M120 490 L290 380 L430 450 L610 320" fill="none" stroke="#ffffff" stroke-width="2" />
    <path d="M735 370 C780 300, 870 275, 945 310 C1010 340, 1025 420, 970 465 C900 522, 790 520, 742 458 C719 430, 712 399, 735 370 Z" fill="url(#accent)" />
    <path d="M270 198 C332 145, 424 153, 472 220 C506 268, 500 342, 430 380 C344 425, 246 390, 220 322 C204 280, 215 244, 270 198 Z" fill="url(#accent)" />
  </g>
  <rect x="84" y="82" width="190" height="40" rx="20" fill="#ff9800" opacity="0.18" stroke="#ffb74d" />
  <text x="106" y="108" fill="#ffb74d" font-size="18" font-family="Manrope, Segoe UI, sans-serif" font-weight="700" letter-spacing="2">DESKTOP + GIS</text>
  <text x="84" y="220" fill="#ffffff" font-size="76" font-family="Space Grotesk, Segoe UI, sans-serif" font-weight="700">Vetorizador</text>
  <text x="84" y="294" fill="#ff9800" font-size="58" font-family="Space Grotesk, Segoe UI, sans-serif" font-weight="700">Inteligência geoespacial</text>
  <text x="84" y="356" fill="#ff9800" font-size="58" font-family="Space Grotesk, Segoe UI, sans-serif" font-weight="700">e documental</text>
  <text x="84" y="432" fill="#d5d0ca" font-size="28" font-family="Manrope, Segoe UI, sans-serif">Vetorização determinística, processamento documental,</text>
  <text x="84" y="470" fill="#d5d0ca" font-size="28" font-family="Manrope, Segoe UI, sans-serif">APP compartilhada e exportação operacional para GIS.</text>
  <g transform="translate(760 126)">
    <rect width="320" height="378" rx="28" fill="#1f1a15" stroke="#3e3121" />
    <rect x="24" y="24" width="272" height="44" rx="14" fill="#2a221b" />
    <rect x="24" y="92" width="272" height="170" rx="22" fill="#201913" stroke="#4a3724" />
    <path d="M72 202 C120 154, 178 148, 224 182 C258 206, 258 256, 218 282 C170 314, 102 306, 72 264 C54 238, 52 224, 72 202 Z" fill="#ff9800" opacity="0.68" />
    <path d="M182 132 C215 108, 258 112, 280 150 C296 178, 286 214, 252 232 C208 254, 156 236, 144 196 C136 170, 148 154, 182 132 Z" fill="#ff9800" opacity="0.35" />
    <rect x="24" y="288" width="126" height="66" rx="16" fill="#2a221b" />
    <rect x="170" y="288" width="126" height="66" rx="16" fill="#332516" />
    <text x="42" y="320" fill="#ffffff" font-size="16" font-family="Manrope, Segoe UI, sans-serif" font-weight="700">WASM soberano</text>
    <text x="42" y="342" fill="#c9c1b8" font-size="13" font-family="Manrope, Segoe UI, sans-serif">Núcleo Rust</text>
    <text x="188" y="320" fill="#ffffff" font-size="16" font-family="Manrope, Segoe UI, sans-serif" font-weight="700">APP compartilhada</text>
    <text x="188" y="342" fill="#f8d1a4" font-size="13" font-family="Manrope, Segoe UI, sans-serif">Firestore controlado</text>
  </g>
</svg>
